<svg width="25" height="25" viewBox="0 0 25 25" fill="none" xmlns="http://www.w3.org/2000/svg">
<path d="M21.275 0.21875H2.975C1.4 0.21875 0.125 1.49375 0.125 3.06875V21.3687C0.125 22.9438 1.4 24.2188 2.975 24.2188H21.275C22.85 24.2188 24.125 22.9438 24.125 21.3687V3.06875C24.125 1.49375 22.85 0.21875 21.275 0.21875ZM18.125 3.21875H20.375C20.825 3.21875 21.125 3.51875 21.125 3.96875V6.21875C21.125 6.66875 20.825 6.96875 20.375 6.96875H18.125C17.675 6.96875 17.375 6.66875 17.375 6.21875V3.96875C17.375 3.51875 17.675 3.21875 18.125 3.21875ZM12.125 7.64375C14.675 7.64375 16.775 9.66875 16.775 12.2188C16.775 14.7688 14.675 16.7938 12.125 16.7938C9.575 16.7938 7.475 14.7688 7.475 12.2188C7.55 9.66875 9.575 7.64375 12.125 7.64375ZM21.125 21.9688H3.125C2.675 21.9688 2.375 21.6688 2.375 21.2188V9.96875H5.375C5 10.5688 4.85 11.5437 4.85 12.2188C4.85 16.2687 8.15 19.4937 12.125 19.4937C16.175 19.4937 19.4 16.1938 19.4 12.2188C19.4 11.5437 19.325 10.4937 18.8 9.96875H21.8V21.2188C21.875 21.6688 21.575 21.9688 21.125 21.9688Z" fill="#929292"/>
</svg>
