<svg width="24" height="25" viewBox="0 0 24 25" fill="none" xmlns="http://www.w3.org/2000/svg">
<path fill-rule="evenodd" clip-rule="evenodd" d="M23.025 0.21875H0.975C0.45 0.21875 0 0.66875 0 1.19375V23.1688C0 23.7688 0.45 24.2188 0.975 24.2188H12.75V15.2188H9.75V11.4688H12.75V8.46875C12.75 5.39375 14.7 3.81875 17.475 3.81875C18.825 3.81875 19.95 3.96875 20.25 3.96875V7.19375H18.3C16.8 7.19375 16.425 7.94375 16.425 8.99375V11.4688H20.175L19.425 15.2188H16.425L16.5 24.2188H22.95C23.475 24.2188 23.925 23.7687 23.925 23.2437V1.19375C24 0.66875 23.55 0.21875 23.025 0.21875Z" fill="#929292"/>
</svg>
